<svg xmlns="http://www.w3.org/2000/svg" width="1024" height="256"><defs><linearGradient id="mist"><stop stop-color="white" stop-opacity="0"/><stop offset=".5" stop-color="white" stop-opacity=".09"/><stop offset="1" stop-color="white" stop-opacity="0"/></linearGradient></defs><path d="M0 204Q210 170 512 201Q820 170 1024 204V244H0Z" fill="url(#mist)"/><g transform="translate(55 56) scale(1)"><path d="M0 152Q-5 83 3 14 M0 106L-30 78L-39 41 M0 84L28 57L36 22 M-2 64L-19 44L-16 12 M-1 124L27 105" fill="none" stroke="white" opacity="0.9" stroke-width="4" stroke-linecap="round" stroke-linejoin="round"/><path d="M-38 42L-28 76 M5 18L1 48 M28 56L36 25" fill="none" stroke="white" opacity="1" stroke-width="5" stroke-linecap="round" stroke-linejoin="round"/></g><path d="M26 99Q38 152 48 119 M65 85Q87 163 91 120 M136 220L131 155 M131 192L114 175 M137 209L157 180" fill="none" stroke="white" opacity="0.65" stroke-width="3" stroke-linecap="round" stroke-linejoin="round"/><g fill="white"><circle cx="120" cy="117" r="2"/><circle cx="164" cy="166" r="2"/><circle cx="100" cy="181" r="3"/></g><g transform="translate(1024 0) scale(-1 1)"><g transform="translate(55 56) scale(1)"><path d="M0 152Q-5 83 3 14 M0 106L-30 78L-39 41 M0 84L28 57L36 22 M-2 64L-19 44L-16 12 M-1 124L27 105" fill="none" stroke="white" opacity="0.9" stroke-width="4" stroke-linecap="round" stroke-linejoin="round"/><path d="M-38 42L-28 76 M5 18L1 48 M28 56L36 25" fill="none" stroke="white" opacity="1" stroke-width="5" stroke-linecap="round" stroke-linejoin="round"/></g><path d="M26 99Q38 152 48 119 M65 85Q87 163 91 120 M136 220L131 155 M131 192L114 175 M137 209L157 180" fill="none" stroke="white" opacity="0.65" stroke-width="3" stroke-linecap="round" stroke-linejoin="round"/><g fill="white"><circle cx="120" cy="117" r="2"/><circle cx="164" cy="166" r="2"/><circle cx="100" cy="181" r="3"/></g></g><path d="M30 224Q116 201 210 221L360 224 M664 224L814 221Q910 201 994 224" fill="none" stroke="white" opacity="0.4" stroke-width="2" stroke-linecap="round" stroke-linejoin="round"/></svg>