<svg xmlns="http://www.w3.org/2000/svg" width="1024" height="256"><defs><linearGradient id="mist"><stop stop-color="white" stop-opacity="0"/><stop offset=".5" stop-color="white" stop-opacity=".09"/><stop offset="1" stop-color="white" stop-opacity="0"/></linearGradient></defs><path d="M0 204Q210 170 512 201Q820 170 1024 204V244H0Z" fill="url(#mist)"/><path d="M182 29A125 125 0 0 0 182 227 M175 46A104 104 0 0 0 175 210 M93 71L76 59 M68 112L46 109 M76 169L55 180 M119 211L108 230 M118 42L107 23" fill="none" stroke="white" opacity="0.8" stroke-width="3" stroke-linecap="round" stroke-linejoin="round"/><path d="M158 72L179 107L150 128L177 151L156 184 M23 128L37 114L51 128L37 142Z" fill="none" stroke="white" opacity="0.5" stroke-width="2" stroke-linecap="round" stroke-linejoin="round"/><g transform="translate(1024 0) scale(-1 1)"><path d="M182 29A125 125 0 0 0 182 227 M175 46A104 104 0 0 0 175 210 M93 71L76 59 M68 112L46 109 M76 169L55 180 M119 211L108 230 M118 42L107 23" fill="none" stroke="white" opacity="0.8" stroke-width="3" stroke-linecap="round" stroke-linejoin="round"/><path d="M158 72L179 107L150 128L177 151L156 184 M23 128L37 114L51 128L37 142Z" fill="none" stroke="white" opacity="0.5" stroke-width="2" stroke-linecap="round" stroke-linejoin="round"/></g><path d="M234 222H450 M574 222H790 M485 222L512 205L539 222L512 239Z" fill="none" stroke="white" opacity="0.7" stroke-width="2" stroke-linecap="round" stroke-linejoin="round"/></svg>