<svg xmlns="http://www.w3.org/2000/svg" width="1024" height="256"><defs><linearGradient id="mist"><stop stop-color="white" stop-opacity="0"/><stop offset=".5" stop-color="white" stop-opacity=".09"/><stop offset="1" stop-color="white" stop-opacity="0"/></linearGradient></defs><path d="M0 204Q210 170 512 201Q820 170 1024 204V244H0Z" fill="url(#mist)"/><path d="M35 128L83 59L131 128L83 197Z M52 128L83 84L113 128L83 172Z M83 59V31 M83 197V225 M131 128H206 M83 98L98 128L83 158L68 128Z" fill="none" stroke="white" opacity="0.85" stroke-width="2" stroke-linecap="round" stroke-linejoin="round"/><path d="M149 84Q175 53 224 60 M152 172Q179 206 231 194" fill="none" stroke="white" opacity="0.5" stroke-width="2" stroke-linecap="round" stroke-linejoin="round"/><g transform="translate(1024 0) scale(-1 1)"><path d="M35 128L83 59L131 128L83 197Z M52 128L83 84L113 128L83 172Z M83 59V31 M83 197V225 M131 128H206 M83 98L98 128L83 158L68 128Z" fill="none" stroke="white" opacity="0.85" stroke-width="2" stroke-linecap="round" stroke-linejoin="round"/><path d="M149 84Q175 53 224 60 M152 172Q179 206 231 194" fill="none" stroke="white" opacity="0.5" stroke-width="2" stroke-linecap="round" stroke-linejoin="round"/></g><path d="M246 221H456L512 238L568 221H778" fill="none" stroke="white" opacity="0.7" stroke-width="2" stroke-linecap="round" stroke-linejoin="round"/></svg>